# xmcd
#
# Track frame offsets:
#	150
#	12820
#	24330
#	41270
#	55263
#	68169
#	81817
#	101842
#	119054
#	132773
#	160689
#	176328
#	187088
#	201576
#	212531
#	228856
#
# Disc length: 3352
#
# Revision: 1
# Processed by: cddbd v1.5.1PL0 Copyright (c) Steve Scherf et al.
# Submitted via: VisiTrax 2.9.9.209 - For more info visit www.synapsa.com
# Normalized: r0:DSETVAR1
#
DISCID=d30d1610
DTITLE=Various Artist - Best of the Blues 2cd set CD2
DYEAR=2004
DGENRE=Blues
TTITLE0=Elmore James - Dust My Broom
TTITLE1=John Lee Hooker - Boom Boom
TTITLE2=Albert King - Get out of my Life Woman
TTITLE3=Lightnin Hopkins - Mojo Hand
TTITLE4=T-Bone Walker - Hypin' Woman Blues
TTITLE5=EddieTaylor - Big Town Playboy
TTITLE6=Albert Collins - Too Many Dirty Dishes
TTITLE7=Rod Piazza - Mellow Down Easy
TTITLE8=Sonny Boy Williamson - Good morning, Little schoolgirl
TTITLE9=Muddy Waters - Caldonia
TTITLE10=Careless Love Blues - Bessie Smith
TTITLE11=Arthur "Big Boy" Crudup - That's All Right
TTITLE12=Big Joe Williams - Nobody knows you when your down and out
TTITLE13=Robert Johnson - From Four Till Late
TTITLE14=Keb 'Mo' - Kindhearted Woman Blues
TTITLE15=Luther Allison - Sweet Home Chicago
EXTD=
EXTT0=
EXTT1=
EXTT2=
EXTT3=
EXTT4=
EXTT5=
EXTT6=
EXTT7=
EXTT8=
EXTT9=
EXTT10=
EXTT11=
EXTT12=
EXTT13=
EXTT14=
EXTT15=
PLAYORDER=
